<svg width="40" height="40" viewBox="0 0 40 40" fill="none" xmlns="http://www.w3.org/2000/svg">
<path d="M30.4992 9.51662C29.8492 8.86662 28.7992 8.86662 28.1492 9.51662L19.9992 17.65L11.8492 9.49995C11.1992 8.84995 10.1492 8.84995 9.49922 9.49995C8.84922 10.15 8.84922 11.2 9.49922 11.85L17.6492 20L9.49922 28.1499C8.84922 28.7999 8.84922 29.8499 9.49922 30.4999C10.1492 31.1499 11.1992 31.1499 11.8492 30.4999L19.9992 22.35L28.1492 30.4999C28.7992 31.1499 29.8492 31.1499 30.4992 30.4999C31.1492 29.8499 31.1492 28.7999 30.4992 28.1499L22.3492 20L30.4992 11.85C31.1325 11.2166 31.1325 10.15 30.4992 9.51662V9.51662Z" fill="#606675"/>
</svg>
